<svg width="100" height="91" viewBox="0 0 100 91" fill="none" xmlns="http://www.w3.org/2000/svg">
<path d="M49.944 0.5C28.5638 0.5 11.1704 16.3281 11.1704 35.784V82.542C11.1704 86.8741 15.0429 90.3981 19.8034 90.3981C24.564 90.3981 28.4365 86.8741 28.4365 82.542V78.6813C28.4365 75.451 31.3244 72.823 34.8743 72.823C38.4241 72.823 41.312 75.451 41.312 78.6813V82.542C41.3109 86.8741 45.1845 90.3981 49.944 90.3981C54.7045 90.3981 58.577 86.8741 58.577 82.542V78.6813C58.577 75.451 61.465 72.823 65.0137 72.823C68.5635 72.823 71.4514 75.451 71.4514 78.6813V82.542C71.4514 86.8741 75.324 90.3981 80.0845 90.3981C84.8439 90.3981 88.7165 86.8741 88.7165 82.542V35.784C88.7176 16.3281 71.3241 0.5 49.944 0.5ZM86.5223 82.542C86.5223 85.7723 83.6343 88.4003 80.0856 88.4003C76.5358 88.4003 73.6479 85.7723 73.6479 82.542V78.6813C73.6479 74.3493 69.7753 70.8252 65.0148 70.8252C60.2554 70.8252 56.3828 74.3493 56.3828 78.6813V82.542C56.3817 85.7723 53.4938 88.4003 49.944 88.4003C46.3941 88.4003 43.5062 85.7723 43.5062 82.542V78.6813C43.5062 74.3493 39.6337 70.8252 34.8732 70.8252C30.1137 70.8252 26.2401 74.3493 26.2401 78.6813V82.542C26.2401 85.7723 23.3522 88.4003 19.8023 88.4003C16.2525 88.4003 13.3646 85.7723 13.3646 82.542V35.784C13.3657 17.4298 29.7745 2.49773 49.944 2.49773C70.1134 2.49773 86.5223 17.4298 86.5223 35.784V82.542Z" fill="#1B1B1B" stroke="#1B1B1B"/>
<path d="M34.5768 23.8965C27.0513 23.8965 20.9285 29.4682 20.9285 36.3164C20.9285 43.1646 27.0513 48.7363 34.5768 48.7363C42.1023 48.7363 48.225 43.1646 48.225 36.3164C48.225 29.4682 42.1023 23.8965 34.5768 23.8965ZM39.7544 43.2525C37.6524 43.2525 35.9434 41.6963 35.9434 39.7845C35.9434 37.8726 37.6535 36.3164 39.7544 36.3164C41.8553 36.3164 43.5655 37.8726 43.5655 39.7845C43.5655 41.6963 41.8553 43.2525 39.7544 43.2525ZM45.6686 38.8645C45.1856 36.2884 42.7214 34.3187 39.7544 34.3187C36.4417 34.3187 33.7481 36.7709 33.7481 39.7845C33.7481 42.798 36.4428 45.2503 39.7544 45.2503C40.0201 45.2503 40.2802 45.2293 40.5382 45.1983C38.7995 46.1682 36.7622 46.7386 34.5779 46.7386C28.2631 46.7386 23.1249 42.0629 23.1249 36.3164C23.1249 30.5699 28.2631 25.8942 34.5779 25.8942C40.8927 25.8942 46.0308 30.5699 46.0308 36.3164C46.0297 37.1964 45.8958 38.0474 45.6686 38.8645Z" fill="#1B1B1B" stroke="#1B1B1B"/>
<path d="M65.3112 23.8965C57.7867 23.8965 51.6629 29.4682 51.6629 36.3164C51.6629 43.1646 57.7867 48.7363 65.3112 48.7363C72.8356 48.7363 78.9594 43.1646 78.9594 36.3164C78.9594 29.4682 72.8356 23.8965 65.3112 23.8965ZM70.4888 43.2525C68.3879 43.2525 66.6777 41.6963 66.6777 39.7845C66.6777 37.8726 68.3879 36.3164 70.4888 36.3164C72.5897 36.3164 74.2999 37.8726 74.2999 39.7845C74.2999 41.6963 72.5897 43.2525 70.4888 43.2525ZM76.403 38.8655C75.92 36.2884 73.4558 34.3187 70.4888 34.3187C67.1761 34.3187 64.4824 36.7709 64.4824 39.7845C64.4824 42.798 67.1761 45.2503 70.4888 45.2503C70.7544 45.2503 71.0146 45.2293 71.2725 45.1983C69.5338 46.1682 67.4966 46.7386 65.3123 46.7386C58.9974 46.7386 53.8593 42.0629 53.8593 36.3164C53.8593 30.5699 58.9974 25.8942 65.3123 25.8942C71.6271 25.8942 76.7652 30.5699 76.7652 36.3164C76.7641 37.1974 76.6302 38.0474 76.403 38.8655Z" fill="#1B1B1B" stroke="#1B1B1B"/>
</svg>
