<svg width="43" height="43" viewBox="0 0 43 43" fill="none" xmlns="http://www.w3.org/2000/svg">
<circle cx="21.0106" cy="21.0106" r="21.0106" fill="#FCC26B"/>
<path d="M25.0525 26.1523C25.0525 25.7861 24.9874 25.4484 24.8572 25.1392C24.7352 24.8218 24.5358 24.5288 24.2591 24.2603C23.9824 23.9917 23.6243 23.7435 23.1849 23.5156C22.7454 23.2796 22.2246 23.064 21.6224 22.8687C20.8655 22.6326 20.1819 22.36 19.5716 22.0508C18.9612 21.7415 18.4404 21.3713 18.0091 20.9399C17.5696 20.5168 17.2319 20.0285 16.9959 19.4751C16.7599 18.9217 16.6419 18.2829 16.6419 17.5586C16.6419 16.875 16.7436 16.2565 16.9471 15.7031C17.1587 15.1497 17.4557 14.6655 17.8382 14.2505C18.2125 13.8436 18.6683 13.514 19.2054 13.2617C19.7506 13.0094 20.3528 12.8426 21.012 12.7612V10.0757H22.8309V12.7612C23.4249 12.8426 23.9661 13.0013 24.4544 13.2373C24.9427 13.4652 25.3659 13.7622 25.7239 14.1284C26.1878 14.6167 26.5418 15.223 26.7859 15.9473C27.0301 16.6634 27.1562 17.4894 27.1644 18.4253H24.9183C24.9183 17.88 24.8491 17.3796 24.7107 16.9238C24.5805 16.46 24.3893 16.0612 24.137 15.7275C23.8766 15.402 23.5592 15.1457 23.1849 14.9585C22.8105 14.7713 22.3833 14.6777 21.9031 14.6777C21.3823 14.6777 20.9266 14.751 20.5359 14.8975C20.1535 15.0439 19.8401 15.2515 19.596 15.52C19.3681 15.7642 19.1932 16.0571 19.0711 16.3989C18.9572 16.7326 18.9002 17.1069 18.9002 17.522C18.9002 17.9289 18.9653 18.291 19.0955 18.6084C19.2257 18.9258 19.4332 19.2147 19.7181 19.4751C19.9948 19.7355 20.3528 19.9797 20.7923 20.2075C21.2399 20.4272 21.777 20.6429 22.4036 20.8545C23.1686 21.1068 23.8562 21.3875 24.4666 21.6968C25.077 22.006 25.5937 22.3682 26.0169 22.7832C26.4401 23.1982 26.7615 23.6784 26.9812 24.2236C27.2091 24.7689 27.323 25.4036 27.323 26.1279C27.323 26.8359 27.2091 27.4707 26.9812 28.0322C26.7615 28.5938 26.4482 29.0739 26.0413 29.4727C25.6344 29.8796 25.138 30.2051 24.5521 30.4492C23.9743 30.6934 23.3313 30.8521 22.6233 30.9253V33.269H20.8045V30.9375C20.1697 30.8724 19.5594 30.7259 18.9734 30.498C18.3956 30.2702 17.8829 29.9365 17.4354 29.4971C16.9878 29.0658 16.6297 28.5205 16.3611 27.8613C16.0926 27.2021 15.9583 26.4128 15.9583 25.4932H18.2166C18.2166 26.1768 18.3183 26.7464 18.5218 27.2021C18.7252 27.6497 18.9897 28.0078 19.3152 28.2764C19.6326 28.5449 19.9948 28.7362 20.4017 28.8501C20.8086 28.964 21.2195 29.021 21.6346 29.021C22.1635 29.021 22.6396 28.9559 23.0628 28.8257C23.486 28.6955 23.844 28.5042 24.137 28.252C24.43 28.0078 24.6538 27.7108 24.8084 27.3608C24.9712 27.0028 25.0525 26.5999 25.0525 26.1523Z" fill="black"/>
</svg>
