<svg width="44" height="44" viewBox="0 0 44 44" fill="none" xmlns="http://www.w3.org/2000/svg">
<circle cx="22" cy="22" r="22" fill="#FCC26B"/>
<path d="M22.1763 22.5956C19.5308 22.5956 17.3784 20.4434 17.3784 17.7979C17.3784 15.1522 19.5308 13 22.1763 13C24.8218 13 26.974 15.1522 26.974 17.7979C26.974 20.4434 24.8218 22.5956 22.1763 22.5956ZM22.1763 13.6129C19.8688 13.6129 17.9913 15.4902 17.9913 17.7979C17.9913 20.1055 19.8685 21.9827 22.1763 21.9827C24.4838 21.9827 26.3611 20.1055 26.3611 17.7979C26.3611 15.4902 24.4838 13.6129 22.1763 13.6129Z" fill="black" stroke="#242424"/>
<path d="M28.1963 31.5927H16.3066C16.1372 31.5927 16 31.4556 16 31.2862V28.1767C16 25.5871 18.107 23.48 20.6965 23.48H23.806C26.3955 23.48 28.5027 25.5869 28.5027 28.1767V31.2862C28.5027 31.4556 28.3655 31.5927 28.1963 31.5927ZM16.6131 30.9798H27.8899V28.1767C27.8899 25.9249 26.0582 24.0929 23.8062 24.0929H20.6967C18.4449 24.0929 16.6131 25.9247 16.6131 28.1767V30.9798Z" fill="black" stroke="#242424"/>
</svg>
