<svg width="44" height="44" viewBox="0 0 44 44" fill="none" xmlns="http://www.w3.org/2000/svg">
<circle cx="22" cy="22" r="22" fill="#FCC26B"/>
<path d="M13.7949 13.8496H17.1845C17.2722 13.8497 17.4336 13.8825 17.6191 13.9668C17.806 14.0518 17.9307 14.15 17.9804 14.208V14.207L20.2968 16.9229C20.9441 17.681 22.0598 17.6798 22.707 16.9238L22.708 16.9229L25.0234 14.207L25.0244 14.208C25.0743 14.1499 25.1983 14.0516 25.3847 13.9668C25.5702 13.8824 25.7326 13.8496 25.8212 13.8496H29.2099C29.3134 13.8496 29.495 13.8835 29.7021 13.9658C29.858 14.0278 29.9815 14.0989 30.0625 14.1582L30.1289 14.2129L32.7929 16.7666C32.8604 16.8316 32.9595 16.9706 33.0419 17.1611C33.125 17.3532 33.1552 17.5146 33.1552 17.5967V22.7666C33.1551 22.821 33.1294 22.9497 33.0449 23.1074C32.9611 23.2635 32.8645 23.3641 32.8076 23.4033L32.8066 23.4043L21.7373 31.0166V31.0176C21.71 31.0363 21.6274 31.0713 21.5019 31.0713C21.3768 31.0713 21.2953 31.0359 21.2685 31.0176L21.2666 31.0166L10.1982 23.4043L10.1962 23.4033L10.1474 23.3623C10.0926 23.3106 10.0225 23.2254 9.95992 23.1084C9.87595 22.9513 9.84969 22.8222 9.84956 22.7666V17.5967C9.84962 17.5146 9.88074 17.3534 9.96382 17.1611C10.0461 16.9709 10.1444 16.8319 10.2119 16.7666L12.8759 14.2129C12.9448 14.1472 13.0952 14.0483 13.3027 13.9658C13.509 13.8839 13.6904 13.8497 13.7949 13.8496Z" stroke="#242424" stroke-width="1.7"/>
</svg>
